PathFileType	4	(X/Y/Z)	c:/Users/goper/Files/vsCode/490R/osim_files/A03/A03_Static02.trc
DataRate	CameraRate	NumFrames	NumMarkers	Units                	OrigDataRate	OrigDataStartFrame	OrigNumFrames
250.00	250.00	9	36	mm	250.0	279	2227
                Frame#	Time	LPSIS			LASIS			LTH1			LTH2			LTH3			LTH4			LLFE			LMFE			LSH1			LSH2			LSH3			LSH4			LLMAL			LMMAL			LCAL			LMTP5			LTOE			LMTP1			RPSIS			RASIS			RTH1			RTH2			RTH3			RTH4			RLFE			RMFE			RSH1			RSH2			RSH3			RSH4			RLMAL			RMMAL			RCAL			RMTP1			RTOE			RMTP5		
		X1	Y1	Z1	X2	Y2	Z2	X3	Y3	Z3	X4	Y4	Z4	X5	Y5	Z5	X6	Y6	Z6	X7	Y7	Z7	X8	Y8	Z8	X9	Y9	Z9	X10	Y10	Z10	X11	Y11	Z11	X12	Y12	Z12	X13	Y13	Z13	X14	Y14	Z14	X15	Y15	Z15	X16	Y16	Z16	X17	Y17	Z17	X18	Y18	Z18	X19	Y19	Z19	X20	Y20	Z20	X21	Y21	Z21	X22	Y22	Z22	X23	Y23	Z23	X24	Y24	Z24	X25	Y25	Z25	X26	Y26	Z26	X27	Y27	Z27	X28	Y28	Z28	X29	Y29	Z29	X30	Y30	Z30	X31	Y31	Z31	X32	Y32	Z32	X33	Y33	Z33	X34	Y34	Z34	X35	Y35	Z35	X36	Y36	Z36

279	1.11200	-355.98309	1056.73169	403.38144	-106.87342	987.72742	299.96194	-178.76779	645.79553	229.36928	-167.66434	603.98175	225.79242	-115.91515	652.06439	239.73376	-116.39964	608.19049	236.94992	-175.17178	558.10724	232.24721	-129.75316	529.25342	379.97879	-232.34518	478.26657	234.04759	-238.05469	430.07385	230.96611	-171.91208	463.72168	225.92844	-186.53249	418.57315	227.79089	-287.34134	104.32230	231.63245	-256.77347	104.67252	321.28326	-346.76788	86.44152	297.72717	-148.23952	41.67352	182.73479	-102.75488	68.19444	243.90099	-122.47492	47.79911	294.19031	-363.52356	1062.22449	484.10657	-125.17710	988.21576	602.74530	-220.44293	633.81781	670.66260	-213.92393	589.57678	667.00861	-158.72897	636.75903	674.88239	-159.56696	591.92084	670.42059	-193.66188	546.03961	659.65906	-134.35374	539.93542	547.32263	-251.84718	485.33578	654.91107	-261.57281	446.81299	670.21411	-193.57672	471.07611	671.25964	-212.46512	429.75650	683.79626	-287.26102	129.22806	661.04834	-243.72484	128.52301	586.55640	0.00000	0.00000	0.00000	-121.99187	47.82165	595.83374	-99.99941	70.73950	648.48004	-142.53481	42.48384	713.05902
280	1.11600	-355.97803	1056.71509	403.41968	-106.85403	987.74316	299.95270	-178.73959	645.79291	229.37894	-167.69608	603.97992	225.81123	-115.91974	652.06836	239.73904	-116.37128	608.19574	236.95584	-175.20128	558.09039	232.25458	-129.72659	529.26233	379.98590	-232.33228	478.26169	234.05312	-238.03970	430.07465	230.96840	-171.92688	463.70065	225.92274	-186.51730	418.60263	227.79309	-287.35568	104.33751	231.64665	-256.78491	104.65379	321.29492	-346.75970	86.43401	297.72690	-148.26064	41.68607	182.73740	-102.77885	68.15017	243.91702	-122.49286	47.76483	294.20178	-363.51395	1062.21814	484.12619	-125.12412	988.22058	602.78058	-220.42529	633.80530	670.68665	-213.89125	589.55505	667.02588	-158.70093	636.72266	674.88483	-159.56509	591.90881	670.43353	-193.64938	546.03595	659.69550	-134.35962	539.94031	547.32623	-251.82584	485.31940	654.95630	-261.52505	446.81085	670.25262	-193.56020	471.04221	671.29901	-212.44405	429.74368	683.82654	-287.23828	129.20686	661.05994	-243.73535	128.53473	586.54480	0.00000	0.00000	0.00000	-122.00522	47.83107	595.82288	-99.99326	70.72890	648.47827	-142.53033	42.46993	713.05151
281	1.12000	-355.92679	1056.71350	403.44852	-106.83131	987.75342	299.97821	-178.77090	645.78973	229.40184	-167.67702	603.97443	225.81148	-115.91037	652.07233	239.74619	-116.38701	608.21051	236.96133	-175.18945	558.08337	232.26282	-129.71135	529.25183	379.98773	-232.30727	478.26373	234.04588	-238.03387	430.07187	230.97600	-171.94150	463.71423	225.93269	-186.50577	418.60568	227.79492	-287.14392	104.24546	231.79756	-256.77527	104.65822	321.31363	-346.79037	86.44666	297.74304	-148.25967	41.67967	182.71887	-102.77831	68.15371	243.90280	-122.45499	47.79158	294.19394	-363.44824	1062.20300	484.16818	-125.06715	988.22772	602.81042	-220.38881	633.78687	670.69440	-213.83905	589.54852	667.04712	-158.67427	636.72162	674.91809	-159.55206	591.92322	670.46265	-193.61136	546.02142	659.69568	-134.38976	539.91333	547.35638	-251.80208	485.29050	655.00110	-261.50110	446.80783	670.30322	-193.52943	471.04053	671.33911	-212.39787	429.72556	683.83844	-287.24438	129.22603	661.08008	-243.75601	128.53722	586.55682	0.00000	0.00000	0.00000	-121.99917	47.83133	595.81641	-99.99371	70.74185	648.49213	-142.52434	42.48043	713.06091
282	1.12400	-355.89844	1056.71338	403.49060	-106.81189	987.73950	299.96359	-178.76628	645.77246	229.40533	-167.66930	603.97449	225.81320	-115.90527	652.08032	239.76350	-116.37958	608.22894	236.96826	-175.17691	558.10010	232.26741	-129.69174	529.29199	379.98569	-232.33266	478.25696	234.06883	-238.04703	430.06790	230.98927	-171.94138	463.71643	225.93626	-186.76482	418.61435	227.76889	-287.35071	104.31089	231.66858	-256.74597	104.64174	321.30380	-346.78760	86.44003	297.73022	-148.26884	41.67450	182.72823	-102.70354	68.15869	243.87589	-122.45541	47.79848	294.20322	-363.46484	1062.22876	484.20938	-125.00749	988.23340	602.77032	-220.37234	633.78912	670.68469	-213.78674	589.54773	667.05872	-158.64235	636.75195	674.91687	-159.48494	591.92609	670.45343	-193.51723	546.01581	659.69757	-134.39597	539.92645	547.34094	-251.75616	485.29031	655.03381	-261.45932	446.80609	670.33630	-193.48952	471.03085	671.35138	-212.33026	429.72711	683.91113	-287.24384	129.21770	661.07947	-243.73605	128.52762	586.56622	0.00000	0.00000	0.00000	-122.00009	47.83535	595.81482	-99.97853	70.74216	648.48737	-142.52284	42.46499	713.07288
283	1.12800	-355.83234	1056.71912	403.51456	-106.81246	987.74304	299.97702	-178.78365	645.77264	229.42355	-167.67813	603.96008	225.82315	-115.90599	652.07263	239.75766	-116.37144	608.23248	236.96809	-175.18376	558.08484	232.26755	-129.66809	529.28955	379.99039	-232.33864	478.25446	234.07242	-238.06381	430.06158	230.99883	-171.92433	463.73627	225.93324	-186.74074	418.61041	227.76401	-287.37939	104.32726	231.67105	-256.73779	104.66102	321.30536	-346.79419	86.42833	297.73447	-148.26956	41.67228	182.74100	-102.69510	68.20755	243.90599	-122.42071	47.81295	294.15561	-363.43454	1062.22437	484.23373	-124.96409	988.24847	602.79010	-220.33826	633.79333	670.68988	-213.79427	589.53967	667.05231	-158.58502	636.73846	674.87726	-159.46193	591.92535	670.45166	-193.54248	546.01385	659.71564	-134.37982	539.91241	547.33850	-251.71883	485.29510	655.07629	-261.45258	446.79861	670.33630	-193.45392	471.02603	671.38635	-211.84183	429.97079	684.02740	-287.23172	129.19969	661.06586	-243.77161	128.52066	586.58112	0.00000	0.00000	0.00000	-121.97666	47.85281	595.80170	-99.95601	70.73702	648.47638	-142.50356	42.46503	713.06982
284	1.13200	-355.85211	1056.72168	403.55075	-106.79251	987.71997	299.99750	-178.77196	645.76996	229.42694	-167.65918	603.96033	225.82185	-115.89422	652.07233	239.76956	-116.37312	608.21515	236.97377	-175.16660	558.06934	232.26564	-129.65852	529.28967	379.95679	-232.33051	478.24777	234.06883	-238.06194	430.06036	231.00163	-171.92586	463.71326	225.94757	-186.50896	418.60574	227.79037	-287.36710	104.30383	231.66199	-256.74869	104.65493	321.29312	-346.79330	86.42725	297.74979	-148.27812	41.65590	182.73221	-102.65852	68.24043	243.86064	-122.42580	47.84777	294.14969	-363.39432	1062.22449	484.26782	-124.91857	988.26154	602.76294	-220.33974	633.80316	670.66473	-213.81786	589.55493	667.05933	-158.58502	636.75360	674.88702	-159.44264	591.95251	670.45850	-193.52005	546.01880	659.73077	-134.38826	539.89233	547.33997	-251.74113	485.30341	655.11053	-261.45490	446.79745	670.38489	-193.46927	471.01953	671.41321	-212.26338	429.73428	683.93677	-287.25919	129.21397	661.09198	-243.77371	128.51080	586.60498	0.00000	0.00000	0.00000	-121.98049	47.85995	595.78546	-99.99210	70.73144	648.46600	-142.51044	42.48788	713.04956
285	1.13600	-355.82730	1056.72388	403.58212	-106.78830	987.71680	300.00977	-178.01111	646.19977	228.94489	-167.67366	603.93555	225.83488	-115.88177	652.06335	239.78009	-116.37164	608.19757	236.97220	-175.17609	558.07520	232.27750	-129.65146	529.31897	379.95193	-232.32945	478.23657	234.07431	-238.06554	430.05115	231.00162	-171.91988	463.70352	225.95602	-186.75043	418.58609	227.79784	-287.38278	104.30080	231.66589	-256.80084	104.66186	321.26736	-346.78278	86.40368	297.77075	-148.27521	41.63888	182.74396	-102.44982	68.41037	243.77277	-122.40164	47.87394	294.14316	-363.38464	1062.21753	484.30771	-124.88190	988.30292	602.77753	-220.37671	633.80206	670.66827	-213.82475	589.55524	667.04803	-158.56966	636.77197	674.88977	-159.43712	591.95862	670.47009	-193.54626	546.02118	659.71887	-134.38110	539.89795	547.38129	-251.76595	485.30927	655.12372	-261.46616	446.80637	670.38293	-193.46048	471.00653	671.43811	-212.09607	429.68326	683.97382	-287.27780	129.22134	661.06891	-243.77675	128.48103	586.60492	0.00000	0.00000	0.00000	-121.98198	47.87989	595.76636	-99.98064	70.74548	648.46387	-142.52762	42.47685	713.03949
286	1.14000	-355.77158	1056.73853	403.58701	-106.75684	987.72516	299.99973	-178.77931	645.78088	229.42068	-167.67157	603.95349	225.81705	-115.88210	652.04205	239.77747	-116.36362	608.19220	236.98096	-175.17024	558.05554	232.24951	-129.64253	529.30847	379.94614	-232.29524	478.23203	234.05070	-238.05693	430.04471	231.00975	-171.90196	463.71429	225.94183	-186.74286	418.58386	227.78691	-287.36221	104.30133	231.68332	-256.80984	104.66441	321.26358	-346.76654	86.41474	297.77597	-148.26140	41.63694	182.75302	-102.46837	68.39540	243.79520	-122.38903	47.89458	294.13400	-363.31931	1062.22424	484.31815	-124.85409	988.30261	602.78088	-220.37166	633.79822	670.66260	-213.84375	589.55743	667.06110	-158.53374	636.76581	674.86682	-159.39673	591.96497	670.47107	-193.53220	546.02661	659.73059	-134.39140	539.87262	547.37567	-251.78668	485.31049	655.14722	-261.45715	446.81589	670.41461	-193.44409	470.99811	671.45111	-212.26491	429.71420	683.95886	-287.29047	129.23268	661.09296	-243.79543	128.49828	586.62207	0.00000	0.00000	0.00000	-121.98979	47.89001	595.77698	-99.98533	70.74955	648.45294	-142.53267	42.47961	713.02008
287	1.14400	-355.74521	1056.73804	403.62369	-106.73280	987.70703	300.01648	-178.74860	645.76434	229.43451	-167.65524	603.94092	225.82877	-115.87158	652.04163	239.78055	-116.32318	608.20087	236.97539	-175.18918	558.06970	232.27577	-129.65617	529.32416	379.93765	-232.31126	478.23724	234.08257	-238.04265	430.03442	230.99937	-171.88931	463.72318	225.94196	-186.45912	418.57394	227.80733	-287.15982	104.20396	231.79770	-256.79184	104.68111	321.26813	-346.75699	86.41468	297.76663	-148.27072	41.63473	182.74669	-102.66881	68.28120	243.86476	-122.38498	47.90064	294.11493	-363.28586	1062.26343	484.34131	-124.82029	988.28210	602.79199	-220.32774	633.81494	670.68097	-213.80600	589.56476	667.08459	-158.54053	636.77496	674.89081	-159.38672	591.95386	670.49164	-193.50563	546.02814	659.71075	-134.40506	539.86420	547.38586	-251.75320	485.29947	655.18512	-261.42532	446.80463	670.43268	-193.42413	470.99979	671.49042	-212.19710	429.71957	683.97876	-287.27438	129.22108	661.08759	-243.78311	128.49651	586.62061	0.00000	0.00000	0.00000	-121.96963	47.89444	595.77344	-99.99061	70.75174	648.46002	-142.50963	42.48021	713.02478
